<?xml version="1.0" standalone="no"?>
<!DOCTYPE svg PUBLIC "-//W3C//DTD SVG 20010904//EN"
 "http://www.w3.org/TR/2001/REC-SVG-20010904/DTD/svg10.dtd">
<svg version="1.0" xmlns="http://www.w3.org/2000/svg"
 width="900.000000pt" height="539.000000pt" viewBox="0 0 900.000000 539.000000"
 preserveAspectRatio="xMidYMid meet">

<g transform="translate(0.000000,539.000000) scale(0.100000,-0.100000)"
fill="#000000" stroke="none">
<path d="M5546 4953 c-11 -3 -37 -17 -58 -31 -46 -30 -73 -86 -93 -189 -8 -40
-26 -105 -41 -145 -61 -166 -87 -232 -130 -335 -9 -24 -20 -43 -24 -43 -4 0
-19 15 -33 33 -14 17 -35 43 -47 55 -62 65 -225 262 -257 310 -20 30 -44 77
-55 104 -46 123 -108 178 -197 178 -74 0 -187 -53 -235 -111 -10 -12 -29 -47
-43 -77 l-24 -55 10 -211 c17 -329 30 -489 52 -641 20 -136 59 -316 80 -364
15 -36 4 -37 -38 -2 -35 29 -63 40 -63 24 0 -9 50 -95 68 -116 21 -23 12 -29
-25 -15 -92 35 -82 -64 13 -123 l35 -21 -29 -18 c-32 -20 -64 -59 -57 -70 3
-4 28 -10 56 -14 28 -4 76 -16 106 -28 l56 -20 -6 -77 c-10 -127 -70 -281
-141 -355 -40 -43 -88 -56 -207 -56 -133 0 -310 36 -554 111 -186 57 -383 101
-453 100 -41 0 -83 -3 -94 -7 -18 -5 -105 18 -264 72 -22 8 -56 30 -75 50
l-34 35 0 110 c1 60 -2 109 -6 109 -15 0 -82 -106 -102 -161 l-21 -59 -28 27
-28 27 0 -102 c0 -102 -10 -129 -30 -77 -14 36 -24 31 -50 -25 -23 -48 -44
-63 -53 -37 -27 77 -7 -259 22 -351 11 -35 25 -70 32 -78 9 -11 6 -31 -17 -97
-26 -77 -28 -92 -27 -242 0 -162 19 -303 72 -550 23 -105 17 -128 -51 -208
l-41 -49 17 -161 c10 -89 22 -232 27 -317 6 -85 13 -166 17 -179 4 -13 23 -33
42 -43 32 -18 50 -19 243 -15 140 4 213 9 223 17 42 36 -25 170 -85 170 -9 0
-31 13 -49 30 -28 25 -32 35 -28 62 3 18 10 65 16 104 12 88 58 194 91 211 13
7 43 20 67 28 41 14 43 14 51 -8 5 -12 12 -38 16 -57 8 -40 43 -159 78 -270
13 -41 33 -103 43 -137 l19 -63 231 0 232 0 4 30 c2 16 -1 42 -8 58 -14 33
-79 88 -124 103 -38 14 -53 43 -73 141 -14 68 -15 82 -2 126 l15 49 130 43
130 43 83 -17 c127 -28 279 -47 422 -54 l130 -7 -1 -115 c-1 -140 -28 -324
-56 -387 -19 -43 -19 -47 -4 -59 19 -13 407 -30 513 -21 67 5 103 25 103 57 0
25 -57 99 -85 112 -14 6 -25 15 -25 20 0 4 19 35 43 68 23 33 78 116 122 185
44 68 83 125 88 125 23 1 -4 -276 -39 -398 -22 -77 -23 -88 -10 -98 19 -13
443 -25 529 -15 33 4 62 13 68 22 25 40 -4 94 -79 148 -18 12 -32 28 -32 35 0
16 71 156 105 206 13 19 39 64 58 100 26 50 43 70 73 85 22 11 61 34 87 52 26
18 53 30 61 27 20 -8 82 51 112 107 26 47 29 49 71 49 41 0 45 3 59 35 7 19
14 49 14 67 0 47 14 66 34 49 22 -18 42 -8 62 30 13 27 16 53 12 136 -4 98 -4
103 14 97 10 -3 30 2 43 10 30 20 32 53 10 181 -11 61 -12 92 -5 99 13 13 13
100 -1 151 -17 62 -72 181 -164 355 -31 58 -65 131 -76 163 -17 51 -18 61 -5
90 17 42 88 95 202 149 94 45 123 70 124 104 0 12 24 41 61 74 34 30 78 78 98
109 l36 54 0 183 c0 178 -1 184 -23 206 -19 20 -31 22 -75 19 -134 -11 -242
-6 -281 13 -73 34 -119 88 -179 208 -51 102 -83 147 -131 186 -9 7 -16 21 -16
32 0 10 -17 68 -39 128 -38 108 -46 137 -81 302 -39 183 -92 344 -127 383 -16
16 -55 21 -97 10z m89 -124 c34 -89 60 -187 84 -314 10 -55 37 -156 60 -224
40 -119 47 -151 36 -151 -4 0 -18 6 -33 14 -63 32 -234 59 -374 60 -76 1 -138
2 -138 4 0 2 6 15 14 30 7 15 31 72 51 127 21 55 51 134 67 175 16 41 35 107
43 145 32 148 70 205 136 205 24 0 30 -7 54 -71z m-953 -22 c28 -23 78 -106
78 -129 0 -17 101 -173 138 -213 15 -16 66 -75 112 -130 47 -54 98 -113 113
-130 15 -16 58 -69 95 -117 75 -98 107 -114 97 -50 -6 35 -5 36 10 17 9 -11
18 -30 22 -42 10 -42 33 -27 33 22 0 25 5 45 10 45 9 0 16 -89 12 -152 -1 -16
3 -28 8 -28 32 0 38 161 8 209 -17 28 -58 28 -65 1 -5 -20 -7 -20 -24 -4 -10
9 -25 14 -33 11 -14 -6 -44 19 -34 28 2 3 69 5 149 6 156 2 239 -11 364 -57
119 -43 141 -64 211 -199 103 -200 195 -269 361 -270 l73 0 0 -38 c0 -82 42
-133 103 -124 l30 4 -6 -79 c-8 -100 -35 -157 -102 -212 -151 -124 -262 -163
-439 -154 -78 4 -105 10 -162 37 -70 33 -92 50 -113 89 -6 12 -16 22 -21 22
-15 0 -12 -37 4 -68 57 -110 275 -166 475 -121 24 5 45 8 47 6 2 -1 -18 -14
-44 -27 -57 -30 -111 -68 -135 -95 -22 -25 -47 -82 -47 -107 0 -36 31 -115 86
-219 94 -179 154 -307 168 -361 8 -29 12 -55 11 -56 -2 -2 -17 11 -33 30 -17
18 -33 30 -37 27 -3 -4 7 -36 23 -72 34 -74 76 -258 67 -288 -11 -34 -38 -17
-66 39 -54 110 -61 90 -29 -76 23 -118 27 -266 8 -260 -15 5 -53 95 -66 158
-8 39 -10 30 -11 -70 -1 -131 -15 -230 -33 -241 -18 -11 -47 8 -54 36 -5 22
-8 20 -34 -28 -76 -143 -110 -185 -110 -138 0 28 -6 27 -46 -8 -48 -42 -162
-107 -212 -121 -94 -25 -204 -38 -369 -45 -95 -4 -173 -5 -173 -1 0 4 15 28
32 54 50 71 60 94 49 105 -14 14 -39 -10 -92 -86 -23 -34 -70 -102 -104 -152
-34 -49 -73 -110 -88 -135 -43 -71 -49 -81 -100 -147 -54 -72 -64 -106 -30
-111 12 -2 41 -21 65 -42 65 -60 54 -62 -216 -56 -125 4 -232 8 -236 11 -4 2
-1 27 6 55 19 72 32 182 44 345 9 136 10 142 51 220 22 44 52 100 66 124 20
35 23 45 12 52 -9 6 -17 3 -24 -7 -5 -9 -37 -53 -70 -99 -33 -45 -65 -91 -71
-101 -9 -15 -23 -18 -95 -16 -191 4 -462 51 -823 144 l-40 10 35 30 c128 111
174 174 214 293 26 75 27 88 22 210 -4 82 -13 160 -26 210 -11 44 -26 103 -32
130 -6 28 -16 59 -22 69 -8 17 -11 17 -18 4 -5 -10 1 -85 16 -194 32 -230 32
-305 0 -410 -30 -97 -86 -179 -170 -248 -56 -45 -185 -126 -202 -126 -4 0 -20
-6 -34 -14 -38 -19 -183 -72 -253 -91 -69 -19 -98 -47 -136 -131 -30 -65 -45
-130 -56 -231 -10 -96 -4 -107 79 -149 78 -39 87 -47 87 -81 0 -22 -1 -22
-192 -25 -233 -4 -228 -6 -228 105 0 78 -14 262 -34 423 l-12 100 43 58 c49
68 80 154 65 182 -5 11 -13 39 -17 64 -4 25 -13 72 -22 105 -22 87 -53 337
-53 430 0 105 15 194 47 275 41 105 78 159 197 287 27 29 46 56 43 59 -21 21
-170 -115 -240 -219 l-26 -38 -20 67 c-42 135 -38 281 9 344 17 22 20 23 25 7
4 -9 13 -17 19 -17 17 0 56 55 56 79 0 23 16 36 25 21 14 -22 22 -7 28 50 4
33 16 77 26 98 l20 37 1 -36 c0 -20 3 -51 6 -68 8 -40 79 -112 125 -127 19 -7
59 -23 90 -36 l56 -24 -25 -19 c-37 -27 -13 -29 63 -6 92 29 193 27 335 -5 63
-14 135 -32 160 -39 126 -39 338 -97 440 -121 95 -22 140 -27 255 -28 85 0
156 4 182 12 103 31 210 227 236 434 11 85 10 88 -12 112 -26 28 -128 66 -175
66 -24 0 -27 3 -16 10 8 5 40 10 70 10 93 0 92 18 -2 65 -75 36 -131 85 -116
101 7 6 93 -41 116 -63 18 -17 46 -17 36 0 -26 42 -66 97 -75 102 -5 4 -9 11
-9 16 0 15 29 -5 98 -69 74 -69 122 -100 122 -80 0 8 -16 30 -36 49 -36 34
-52 60 -99 157 -76 158 -137 598 -152 1088 -5 148 -3 164 16 201 54 106 222
169 293 110z m-1216 -3641 c34 -8 77 -20 97 -27 38 -13 49 -29 22 -29 -9 0
-52 -14 -96 -31 -74 -29 -81 -33 -76 -56 2 -13 0 -44 -5 -68 -13 -59 12 -189
47 -250 21 -34 35 -47 63 -55 36 -10 102 -62 102 -81 0 -5 -75 -9 -185 -9
l-185 0 -11 27 c-25 64 -105 344 -128 445 l-8 36 86 36 c47 20 106 47 131 61
25 13 54 22 65 19 11 -3 47 -11 81 -18z m2154 -131 c0 -3 -18 -34 -39 -70 -54
-88 -122 -232 -128 -269 -4 -28 0 -34 41 -59 25 -16 55 -41 67 -55 l21 -27
-44 -7 c-53 -8 -432 2 -449 12 -9 6 -6 30 10 96 12 49 25 145 30 212 5 79 12
127 20 131 7 5 94 11 194 14 100 4 198 11 217 16 43 11 60 13 60 6z"/>
<path d="M4850 4337 c0 -10 7 -34 16 -55 9 -20 27 -102 41 -182 30 -173 38
-485 13 -530 l-13 -25 -8 26 c-11 42 -60 119 -75 119 -10 0 -14 -12 -14 -40 0
-34 -3 -40 -20 -40 -11 0 -23 -7 -26 -15 -4 -8 -10 -12 -15 -9 -18 11 -179
272 -179 290 0 6 -7 17 -15 24 -24 20 -19 -4 15 -68 65 -122 225 -360 236
-349 2 2 -3 23 -11 47 -18 50 -19 60 -5 60 6 0 20 -21 32 -47 23 -54 35 -45
19 14 -6 21 -11 54 -10 73 0 34 2 32 35 -35 19 -38 34 -78 34 -88 0 -28 23
-15 33 19 27 94 16 514 -18 639 -7 28 -16 68 -20 91 -7 44 -45 113 -45 81z"/>
<path d="M5783 3679 c-26 -10 -36 -38 -34 -101 1 -75 31 -117 82 -118 38 0 59
29 59 84 0 86 -54 155 -107 135z"/>
</g>
</svg>
